# File created by Blade
# Date/Time:  Wed Jan 21 17:57:11 2015
# Frame Rate: 120.000 fps
#------------------------------------------------------
:FULLY-SPECIFIED
:DEGREES
1770
root 18.550745 30.441784 -15.560905 -136.170290 2.022789 -178.794318
Spine 28.405098 3.285920 0.726551
Head 162.737240 -2.654892 181.158838
LeftShoulder 3.543467 -15.256732 4.597172
LeftArm -9.391124 11.570875 -74.351932
LeftForeArm 33.799746 -0.000000 77.310212
LeftHand -8.840108 -0.000000 6.031455
LeftHandThumb1 -26.253704 0.000000 33.147579
RightShoulder 3.229962 -12.374512 -4.317948
RightArm 24.449423 2.677670 51.785835
RightForeArm -28.532946 -0.000000 42.584376
RightHand -3.439263 -0.000000 -10.503989
RightHandThumb1 -24.326973 -0.000000 -32.862282
LeftUpLeg -49.607728 22.015709 21.407281
LeftLeg 12.525498 -0.000000 -0.000000
LeftFoot -20.724981 13.328329 -21.434022
LeftToeBase 33.207642 -0.000000 -0.000000
RightUpLeg -53.588559 -21.679784 -17.800471
RightLeg 10.644072 -0.000000 -0.000000
RightFoot -12.579628 -14.370570 28.951434
RightToeBase 28.373046 -0.000000 -0.000000
1771
root 18.550650 30.434879 -15.631305 -137.048954 1.893035 -178.753097
Spine 28.324185 3.341737 0.840879
Head 162.147472 -2.591446 181.133910
LeftShoulder 3.669641 -14.945161 3.875240
LeftArm -9.634352 10.913486 -75.052470
LeftForeArm 34.402589 -0.000000 76.878404
LeftHand -9.009642 -0.000000 5.361605
LeftHandThumb1 -26.253704 0.000000 33.147579
RightShoulder 3.392304 -12.562027 -3.655068
RightArm 25.068423 2.793018 51.930296
RightForeArm -27.453496 -0.000000 40.613563
RightHand -2.783309 -0.000000 -8.221933
RightHandThumb1 -24.326973 -0.000000 -32.862282
LeftUpLeg -49.142126 21.923075 21.546874
LeftLeg 13.250270 -0.000000 -0.000000
LeftFoot -20.936051 12.993870 -21.344479
LeftToeBase 33.104156 -0.000000 -0.000000
RightUpLeg -52.681187 -21.338657 -18.207287
RightLeg 11.077256 -0.000000 -0.000000
RightFoot -12.955954 -14.413947 29.054056
RightToeBase 28.462117 -0.000000 -0.000000
1772
root 18.545883 30.425009 -15.695022 -137.832343 1.777986 -178.755527
Spine 28.139937 3.424731 0.938881
Head 161.614492 -2.520153 181.040670
LeftShoulder 3.854507 -14.772607 3.049305
LeftArm -9.958025 10.349359 -75.649629
LeftForeArm 34.773536 -0.000000 76.498036
LeftHand -9.392925 -0.000000 4.835616
LeftHandThumb1 -26.253704 0.000000 33.147579
RightShoulder 3.531568 -12.583597 -2.951567
RightArm 25.436414 3.095107 52.230838
RightForeArm -26.616617 -0.000000 38.834545
RightHand -2.486475 -0.000000 -5.533452
RightHandThumb1 -24.326973 -0.000000 -32.862282
LeftUpLeg -48.772488 21.777910 21.665713
LeftLeg 13.996254 -0.000000 -0.000000
LeftFoot -21.187288 12.665188 -21.358524
LeftToeBase 33.082688 -0.000000 -0.000000
RightUpLeg -51.869987 -20.980557 -18.689544
RightLeg 11.533663 -0.000000 -0.000000
RightFoot -13.380874 -14.409939 29.190028
RightToeBase 28.354220 -0.000000 -0.000000
1773
root 18.539989 30.412560 -15.765933 -138.685578 1.631401 -178.772940
Spine 28.065189 3.432243 0.989226
Head 161.167517 -2.515602 181.048478
LeftShoulder 3.852501 -14.719579 2.405414
LeftArm -10.188678 10.044430 -76.365024
LeftForeArm 35.066545 -0.000000 75.860901
LeftHand -9.593525 0.000000 4.775090
LeftHandThumb1 -26.253704 0.000000 33.147579
RightShoulder 3.658604 -12.770773 -2.132731
RightArm 26.089888 3.686729 52.532299
RightForeArm -25.551101 0.000000 36.921584
RightHand -2.024466 0.000000 -2.816344
RightHandThumb1 -24.326973 -0.000000 -32.862282
LeftUpLeg -48.340035 21.573823 21.820129
LeftLeg 14.756095 -0.000000 -0.000000
LeftFoot -21.456730 12.301782 -21.352426
LeftToeBase 33.035886 -0.000000 -0.000000
RightUpLeg -50.958465 -20.642181 -19.163703
RightLeg 11.947241 -0.000000 -0.000000
RightFoot -13.829995 -14.460585 29.183640
RightToeBase 28.510928 -0.000000 -0.000000
1774
root 18.531972 30.398709 -15.835573 -139.554601 1.481994 -178.791876
Spine 28.028703 3.491455 1.059547
Head 160.737051 -2.023201 181.033732
LeftShoulder 3.930277 -14.630121 1.786654
LeftArm -10.272487 9.568737 -77.104527
LeftForeArm 35.472927 -0.000000 75.151460
LeftHand -9.819823 -0.000000 4.793250
LeftHandThumb1 -26.253704 0.000000 33.147579
RightShoulder 3.785180 -12.780923 -1.253485
RightArm 26.522443 4.395556 52.898309
RightForeArm -23.925333 -0.000000 35.144212
RightHand -1.926842 -0.000000 -0.384418
RightHandThumb1 -24.326973 -0.000000 -32.862282
LeftUpLeg -47.864434 21.269480 22.049082
LeftLeg 15.493804 -0.000000 -0.000000
LeftFoot -21.787476 12.075101 -21.440875
LeftToeBase 33.052321 -0.000000 -0.000000
RightUpLeg -50.055664 -20.375506 -19.559190
RightLeg 12.344326 -0.000000 -0.000000
RightFoot -14.195700 -14.529359 29.061028
RightToeBase 28.812394 -0.000000 -0.000000
1775
root 18.520045 30.383445 -15.907694 -140.436020 1.346244 -178.832430
Spine 28.040202 3.524829 1.084150
Head 160.375180 -1.854411 181.083970
LeftShoulder 3.986015 -14.552586 1.198648
LeftArm -10.302738 9.258758 -77.790402
LeftForeArm 35.665495 -0.000000 74.382635
LeftHand -9.947441 -0.000000 5.266427
LeftHandThumb1 -26.253704 0.000000 33.147579
RightShoulder 3.900156 -12.779364 -0.386145
RightArm 27.036071 5.343417 53.471503
RightForeArm -22.151199 -0.000000 33.347792
RightHand -1.988985 -0.000000 1.606949
RightHandThumb1 -24.326973 -0.000000 -32.862282
LeftUpLeg -47.369583 20.922673 22.271061
LeftLeg 16.248772 -0.000000 -0.000000
LeftFoot -22.125430 11.911281 -21.395759
LeftToeBase 33.027096 -0.000000 -0.000000
RightUpLeg -49.128956 -20.090719 -19.990228
RightLeg 12.743995 -0.000000 -0.000000
RightFoot -14.556090 -14.492393 29.239822
RightToeBase 28.531265 -0.000000 -0.000000
1776
root 18.493805 30.367370 -15.977514 -141.293207 1.182819 -178.951469
Spine 27.998081 3.534461 1.134675
Head 159.907136 -1.767101 181.017888
LeftShoulder 4.235137 -14.452708 0.550264
LeftArm -10.336795 8.912605 -78.439779
LeftForeArm 35.960600 -0.000000 73.590730
LeftHand -9.867206 -0.000000 5.943449
LeftHandThumb1 -26.253704 0.000000 33.147579
RightShoulder 4.027189 -12.539038 0.456461
RightArm 27.230921 6.471348 54.263891
RightForeArm -20.147304 -0.000000 31.765701
RightHand -2.389494 0.000000 3.079082
RightHandThumb1 -24.326973 -0.000000 -32.862282
LeftUpLeg -46.930622 20.420267 22.469446
LeftLeg 17.024130 -0.000000 -0.000000
LeftFoot -22.485721 11.866209 -21.295939
LeftToeBase 32.959554 -0.000000 -0.000000
RightUpLeg -48.251704 -19.967755 -20.404264
RightLeg 13.171682 -0.000000 -0.000000
RightFoot -14.917965 -14.386380 29.220704
RightToeBase 28.605418 -0.000000 -0.000000
1777
root 18.474722 30.348028 -16.044661 -142.128879 1.062523 -179.003531
Spine 27.916580 3.518194 1.131959
Head 159.369630 -1.607173 180.923314
LeftShoulder 4.365288 -14.362039 -0.051101
LeftArm -10.319456 8.649889 -79.023282
LeftForeArm 36.460324 -0.000000 72.784742
LeftHand -9.902230 -0.000000 6.839231
LeftHandThumb1 -26.253704 0.000000 33.147579
RightShoulder 4.327077 -12.328657 1.225933
RightArm 27.376889 7.856514 55.289440
RightForeArm -18.195136 0.000000 30.378380
RightHand -2.988339 -0.000000 4.571367
RightHandThumb1 -24.326973 -0.000000 -32.862282
LeftUpLeg -46.490660 20.020143 22.690675
LeftLeg 17.810962 -0.000000 -0.000000
LeftFoot -22.881752 11.770778 -21.275606
LeftToeBase 32.936151 -0.000000 -0.000000
RightUpLeg -47.515723 -19.930577 -20.615691
RightLeg 13.650950 -0.000000 -0.000000
RightFoot -15.154490 -14.154508 29.157359
RightToeBase 28.662981 -0.000000 -0.000000
